<svg xmlns="http://www.w3.org/2000/svg" fill="#39d7d9" viewBox="0 0 778 767.77"><path d="M545.42,130.19a45,45,0,0,1-7.5-16.61c-2.54-11.08-3.43-29.1,12.39-41.31,9.1-7,19.29-8,28.46-6.45,16.83,2.85,30.74,14.81,37.17,30.61,6.85,16.8,14.34,44.3,10.81,79.48C626.75,175.91,569.59,163.06,545.42,130.19Z" transform="translate(-11.2 -15.55)"/><path d="M673.09,87a34.09,34.09,0,0,1,10-9.56c7.31-4.62,20-9.79,32.75-1.52,7.34,4.76,10.59,11.82,11.79,18.79,2.2,12.78-2.88,25.77-12.59,34.37-10.32,9.13-28.16,21.43-54.28,27.76C660.78,156.83,655.6,112.6,673.09,87Z" transform="translate(-11.2 -15.55)"/><path d="M199.94,693.12,170,15.55H41.19l-30,744,240.54,23.75c15.11.58,22.61-19.34,11.32-30.09Z" transform="translate(-11.2 -15.55)"/><path d="M631.41,674v82l.38.25a19.56,19.56,0,0,1,5.18-4.94,24.32,24.32,0,0,1,12.32-3.94V683.47a23.9,23.9,0,0,1-12.48-4.12A19.94,19.94,0,0,1,631.41,674Z" transform="translate(-11.2 -15.55)"/><path d="M769.39,669.45l-9.91-1V689.8L772,676.32A4.09,4.09,0,0,0,769.39,669.45Z" transform="translate(-11.2 -15.55)"/><path d="M787.83,363.17l-22.74-30.66L650.22,199.42,440.9,427.28,462.4,15.55H291.08L301.39,782h34.45a18.7,18.7,0,0,1-3.52-11v-4.6a22.62,22.62,0,0,1,2.36-10.5,16,16,0,0,1,5.28-6V677.11c0-3.49,1.11-10.06,8.58-14.89a24.32,24.32,0,0,1,4.28-2.19,25.43,25.43,0,0,1-2.25-1.32l-.22-.14-.21-.15-2.7-1.95c-5.54-3.5-8.7-8.9-8.7-14.9s3.06-11.22,8.44-14.73l2.56-2,.61-.48L351,624h0l-.66-.39-.61-.48L347,621c-7.2-5-8.29-11.32-8.29-14.71s1.11-9.89,8.53-14.87l2.87-2.07.43-.31.45-.27a27.57,27.57,0,0,1,27.54,0l.23.14.22.14,1.19.79a20.72,20.72,0,0,1,4.69-3.94A26.32,26.32,0,0,1,399,582h73.66a25.47,25.47,0,0,1,14.23,4c.44.29.86.58,1.25.88.46-.34.94-.67,1.46-1A25.37,25.37,0,0,1,503.42,582h1.51a25.18,25.18,0,0,1,14.18,4l.06,0,.57-.35A26.55,26.55,0,0,1,533.52,582h4.28a24.93,24.93,0,0,1,13.92,4c7.37,4.84,8.47,11.38,8.47,14.84V708.43L579,721V657.37a17.87,17.87,0,0,1-8-5.31,19.15,19.15,0,0,1-4.79-12.79v-4.6a17.9,17.9,0,0,1,8.48-15c.44-.29.89-.56,1.34-.82a16.92,16.92,0,0,1-4.63-11.56c0-3.47,1.15-10,8.79-15L585,589l.22-.14.22-.13a28.15,28.15,0,0,1,27.85,0l.38.23.37.26,4.46,3.11c7.49,5,8.61,11.49,8.61,14.93a17,17,0,0,1-5,12l.45.27a19.7,19.7,0,0,1,6,5.69c0-.25,0-.49,0-.71v-4.81c0-3.4,1.08-9.85,8.25-14.79a23.25,23.25,0,0,1,5.66-2.83q-44.14-39.64-87.45-80.4l38.75-34.88,27.52,28a6.94,6.94,0,0,0,9.45.42l24.91-21.27a6.93,6.93,0,0,0,0-10.55L625.76,457.9l38.46-34.61L701.36,454a7,7,0,0,0,9.21-.32l27.27-26a6.94,6.94,0,0,0,.14-9.91L706.11,385.6l9.24-8.32,33.08,26.21a7,7,0,0,0,9.32-.64l29.52-30.74A6.94,6.94,0,0,0,787.83,363.17ZM505.51,486.73a31,31,0,1,1,31-31A31,31,0,0,1,505.51,486.73Z" transform="translate(-11.2 -15.55)"/><path d="M637,644.8a23.68,23.68,0,0,1,5.8-2.73,23.5,23.5,0,0,1-5.84-2.76,19.55,19.55,0,0,1-5.59-5.39c0,.25,0,.5,0,.75v15.59A19.16,19.16,0,0,1,637,644.8Z" transform="translate(-11.2 -15.55)"/><path d="M537.8,594a13.15,13.15,0,0,1,7.34,2q3,2,3.05,4.81V771c0,1.87-1,3.5-2.9,4.91a11.94,11.94,0,0,1-7.18,2.1H500.82a13.14,13.14,0,0,1-7.65-2.12c-2-1.42-3.05-3.07-3.05-5v-4.66a5.91,5.91,0,0,1,3.05-5,13.58,13.58,0,0,1,7.65-2h11.31a13.12,13.12,0,0,0,7.33-2,5.85,5.85,0,0,0,3.06-5V600.83c0-1.86,1.11-3.46,3.36-4.8a14.69,14.69,0,0,1,7.64-2h4.28m-32.87,0a13.38,13.38,0,0,1,7.54,2q3,2,3,4.8V743a5.87,5.87,0,0,1-3,5,13.38,13.38,0,0,1-7.54,2h-1.51a13.61,13.61,0,0,1-7.39-2q-3.16-2-3.16-5V600.83q0-2.79,3.16-4.8a13.61,13.61,0,0,1,7.39-2h1.51m-32.24,0a13.73,13.73,0,0,1,7.65,2q3,2,3.05,4.81V739.32q0,2.8-3.05,4.91a13.21,13.21,0,0,1-7.65,2.11h-3.36q-4.27,0-6.26,1.9t.45,4.51v.4a14.44,14.44,0,0,0,5.35,4.41,15,15,0,0,0,6.88,1.8,7.7,7.7,0,0,1,5.5,2,6.55,6.55,0,0,1,2.14,5V771c0,1.87-1,3.5-3.05,4.91a13.21,13.21,0,0,1-7.65,2.1l-8.86-.2a23,23,0,0,1-8.71-1.8,19.1,19.1,0,0,1-6.88-4.41l-7.33-9.6a6.27,6.27,0,0,0-4.74-2.41,7,7,0,0,0-5,2.61l-7,9.4a16.15,16.15,0,0,1-6.57,4.41,23.74,23.74,0,0,1-9,1.8l-12.23.2a13.29,13.29,0,0,1-7.49-2.12q-3.21-2.13-3.21-5v-4.66a6,6,0,0,1,2.91-5,11.19,11.19,0,0,1,6.57-2,19.79,19.79,0,0,0,8.25-1.8,14,14,0,0,0,5.81-4.4v-.4q1.83-2.61-.16-4.51t-6.26-1.9H399a13.9,13.9,0,0,1-7.79-2.1Q388,742,388,739.16V600.83q0-2.79,3.21-4.8a14.46,14.46,0,0,1,7.79-2h73.66M415.3,742.3c.84,0,1.89-.85,3.14-2.54l.3-1.4A19.46,19.46,0,0,0,422,732a23.26,23.26,0,0,0,1.19-6.81V635.67a6.12,6.12,0,0,1,3.05-5.11,13.21,13.21,0,0,1,7.65-2.1h4.28a13.34,13.34,0,0,1,7.48,2.1c2.14,1.4,3.21,3.11,3.21,5.11v96.49q.3,0,1.53,1.8t3.06,4.4v.4c1.13,1.62,2.09,2.42,2.88,2.42h.17c.82-.14,1.23-1.14,1.23-3V619.65q0-2.8-3-4.9a12.49,12.49,0,0,0-7.28-2.1H424.33a13.19,13.19,0,0,0-7.44,2.1q-3.19,2.1-3.19,4.9V739.16c0,1.87.45,2.91,1.33,3.11l.27,0M364.8,597a14.71,14.71,0,0,1,7.64,2l3.36,2.2c2,1.47,3.06,3.14,3.06,5s-1,3.54-3.06,5l-3.36,2.41a15.59,15.59,0,0,1-15.28,0l-3.06-2.41c-2.25-1.46-3.36-3.13-3.36-5s1.11-3.54,3.36-5l3.06-2.2a14.64,14.64,0,0,1,7.64-2m0,35.23a14.63,14.63,0,0,1,7.64,2l3.36,2.4c2,1.33,3.06,3,3.06,4.9s-1,3.57-3.06,4.91l-3.36,2.2a14.37,14.37,0,0,1-15.28,0l-3.06-2.2c-2.25-1.34-3.36-3-3.36-4.91s1.11-3.57,3.36-4.9l3.06-2.4a14.55,14.55,0,0,1,7.64-2m2,38a14,14,0,0,1,7.73,2q3.09,2,3.09,4.81V771a6.08,6.08,0,0,1-2.75,4.91,11.26,11.26,0,0,1-7,2.1H351a6.32,6.32,0,0,1-4.74-2.1,6.94,6.94,0,0,1-2-4.91v-4.6a11,11,0,0,1,1-5,3.13,3.13,0,0,1,2.8-2,3.13,3.13,0,0,0,2.79-2,10.8,10.8,0,0,0,1-5V677.11q0-2.8,3.09-4.81a13.41,13.41,0,0,1,7.43-2h4.33" transform="translate(-11.2 -15.55)"/><path d="M771.63,594.23a13.15,13.15,0,0,1,7.34,2q3,2,3,4.8v8.41a12.14,12.14,0,0,1-2.14,6.41,19.65,19.65,0,0,1-5.19,5.6l-7.65,5a40.74,40.74,0,0,1-7.33,3.4,20.28,20.28,0,0,1-6.42,1.4,5.21,5.21,0,0,0-4.13,2,7.55,7.55,0,0,0-1.68,5V752.38a5.85,5.85,0,0,0,3.06,5,13.11,13.11,0,0,0,7.34,2h13.75a13.15,13.15,0,0,1,7.34,2,5.89,5.89,0,0,1,3,5V771q0,2.81-3,4.91a12.66,12.66,0,0,1-7.34,2.1H752.37a38.5,38.5,0,0,1-9.62-1.4A30,30,0,0,1,734,773l-7.33-5.21a14.25,14.25,0,0,1-5.5-5.3,12.4,12.4,0,0,1-2.14-6.31V638.27q0-3-3.21-5a13.91,13.91,0,0,0-7.49-2H650.89a13,13,0,0,1-7.33-2q-3.06-2-3.06-4.8v-4.81q0-2.8,3.06-4.9a12.61,12.61,0,0,1,7.33-2.1h57.47a13.82,13.82,0,0,0,7.49-2q3.21-2,3.21-5v-4.41c0-1.86,1-3.5,3.05-4.9a13.2,13.2,0,0,1,7.64-2.1h6.73a14.12,14.12,0,0,1,7.64,2.1c2.24,1.4,3.36,3,3.36,4.9v4.41a14.09,14.09,0,0,0,.77,5c.5,1.34,1.27,2,2.29,2s1.78-.67,2.29-2a14.09,14.09,0,0,0,.77-5V601q0-2.79,3.21-4.8a14.46,14.46,0,0,1,7.79-2h7M599.39,597a15,15,0,0,1,7.79,2l4.59,3.21c2.24,1.47,3.36,3.13,3.36,5s-1.12,3.54-3.36,5l-4.59,3.2a16.17,16.17,0,0,1-15.58,0l-4.89-3.2q-3.37-2.21-3.37-5c0-1.87,1.12-3.53,3.37-5L591.6,599a15,15,0,0,1,7.79-2m9.32,30.63a13.91,13.91,0,0,1,7.49,2c2.14,1.34,3.21,3,3.21,5V756.18a12.4,12.4,0,0,1-2.14,6.31,14.39,14.39,0,0,1-5.5,5.3l-7,5a30.73,30.73,0,0,1-8.25,3.6,32.73,32.73,0,0,1-8.87,1.4,10.57,10.57,0,0,1-6.87-2.1,6.17,6.17,0,0,1-2.6-4.91v-4.4a7.16,7.16,0,0,1,1.83-5,6.32,6.32,0,0,1,4.89-2,5.65,5.65,0,0,0,4.28-2,7.13,7.13,0,0,0,1.84-5v-99.1a7.13,7.13,0,0,0-1.84-5,5.65,5.65,0,0,0-4.28-2,6.14,6.14,0,0,1-4.89-2.11,7.22,7.22,0,0,1-1.83-4.9v-4.6a5.88,5.88,0,0,1,3.05-5,13.13,13.13,0,0,1,7.34-2h20.17m91.4,25.22a14.71,14.71,0,0,1,7.64,2q3.36,2,3.36,5v4.8c0,1.86-1.12,3.5-3.36,4.89a14.15,14.15,0,0,1-7.64,2.1,13.11,13.11,0,0,0-7.34,2q-3.06,2-3.06,4.8v73.95a5.87,5.87,0,0,0,3.06,5,13.1,13.1,0,0,0,7.34,2,14.71,14.71,0,0,1,7.64,2q3.36,2,3.36,5V771q0,2.79-3.36,4.89a14.15,14.15,0,0,1-7.64,2.1H650.89a12.61,12.61,0,0,1-7.33-2.1q-3.06-2.1-3.06-4.91v-4.6a5.88,5.88,0,0,1,3.06-5,12.56,12.56,0,0,1,7-2,13.7,13.7,0,0,0,7.64-2,5.88,5.88,0,0,0,3.06-5V678.31c0-1.87-1-3.47-3.06-4.81a13.7,13.7,0,0,0-7.64-2,12.15,12.15,0,0,1-7-2.08c-2-1.39-3.06-3-3.06-4.85v-4.76q0-3,3.06-4.95a13.17,13.17,0,0,1,7.33-2h49.22" transform="translate(-11.2 -15.55)"/></svg>
