<svg id="图层_1" data-name="图层 1" xmlns="http://www.w3.org/2000/svg" viewBox="0 0 360.06 559.18"><defs><style>.cls-1{fill:#5a3232;}.cls-2{fill:#3b325a;}.cls-3{fill:#f7fefe;}.cls-4{fill:#d6d5d7;}.cls-5{fill:#af3837;}.cls-6{fill:#b98c8c;}.cls-7{fill:#442323;}.cls-8{fill:#f6fdfd;}.cls-9{fill:#fceaea;}.cls-10{fill:#e6cbd2;}.cls-11{fill:#ddc3c3;}.cls-12{fill:#7e4f4f;}.cls-13{fill:#6b3d3d;}.cls-14{fill:#b88c8c;}.cls-15{fill:#e9c7c7;}.cls-16{fill:#f5fcfc;}.cls-17{fill:#f5fbfb;}.cls-18{fill:#623b3b;}.cls-19{fill:#613939;}.cls-20{fill:#edeeee;}.cls-21{fill:#8e6363;}.cls-22{fill:#dcc2c3;}.cls-23{fill:#e5e4e8;}.cls-24{fill:#d2b7bd;}.cls-25{fill:#f3f3f3;}.cls-26{fill:#ede1e1;}.cls-27{fill:#e3c8c7;}.cls-28{fill:#e0bebe;}.cls-29{fill:#d7a7a6;}.cls-30{fill:#bc5a59;}.cls-31{fill:#bf6462;}.cls-32{fill:#eaeeef;}.cls-33{fill:#5d3535;}.cls-34{fill:#f9e6e7;}</style></defs><path class="cls-1" d="M181.64,59.09c.23-.15.47-.45.67-.42,4.11.56,4.25-1.88,4.49-5.08.45-6,3.66-10.79,7.85-14.85,12.84-12.41,28.56-17.06,46.07-16.67a3.58,3.58,0,0,1,3.61,2.77,4.62,4.62,0,0,1-1.92,5.28,74.07,74.07,0,0,0-11,9.66,160.88,160.88,0,0,0-11.78,14.28,2.27,2.27,0,0,0-.75,1.88c2.22-.41,4.44-.74,6.63-1.24,6.15-1.39,12,.55,18,1.28,15.15,1.85,28.53,8.65,42.4,14.13A19.94,19.94,0,0,1,290.46,73c13,9.73,26.61,18.68,39.48,28.56,9,6.91,16.73,15.63,23.85,24.53,4.41,5.52,6.27,12.87,10.61,18.59,7.7,10.14,12.15,21.83,16.19,33.64,4.38,12.84,8.16,25.83,9,39.57.64,11.22,1.93,22.43,3.42,33.57a59.46,59.46,0,0,1-1.48,23.17c-2.92,11.23-5.81,22.46-8.75,33.68-1.42,5.41-5.47,9-9.45,12.34-15.71,13.16-33.78,20.64-54.4,21.6a4.88,4.88,0,0,1-3.1-.71c.45-1.46.84-2.95,1.37-4.39,3.42-9.23,5.85-18.56,2.63-28.35a22.74,22.74,0,0,0-.66,2.73,37.86,37.86,0,0,1-7.75,18.78c-2.59,3.35-5.41,6.51-8.12,9.77-.36.44-1.5,1,.09,1.36-2.84.78-5.19,2.58-7.62,4-5.15,3.09-10.79,3.58-16.47,4.09-2.42.22-4.85-.11-7.31.39-2.15.43-4-.76-5.69-2.1a7.43,7.43,0,0,1-.12-7.59A35.76,35.76,0,0,0,274.71,328c2.48-5.67,5.61-11.07,7.39-17.06l2.85-2.83c4.32-4.29,5.86-10.16,3.2-14.75a14.72,14.72,0,0,1-1.85-8.2c0-1.26,0-2.52,0-3.78a9.63,9.63,0,0,0-.59-6l.17-9.83c1.35-.25.95-1.32,1-2.16.15-1.89-.18-3.77.34-5.67,2.2-8,1.15-16-1.72-23.59-5.61-14.8-11.34-29.55-16.63-44.46-.93-2.61-1.55-5.41-3.45-8.43.24,3.3,1.21,5.65,1.84,8.07,2.78,10.65,4.56,21.5,6.55,32.31,2,10.61,4.62,21.12,3.79,32.05-.09,1.14.74,1.81,1.07,2.73-2-1.14-2.91-.73-2.77,1.68a6.35,6.35,0,0,1-.56,2h-1c-.65-1.23-2.47.2-3.13-1.53-.53-1.39-1.82-2.46-2.7-3.73-1.5-2.15-3.76-2.31-6.05-2.34-1,0-1.94.66-1.58,1.69.84,2.44-.38,4.38-1.12,6.48a99.53,99.53,0,0,0-4.07,13.51,4.67,4.67,0,0,1-.82,2A30.15,30.15,0,0,1,239,286.36l-1.88-.27a29.66,29.66,0,0,0,6.84-3.38c4.3-2.49,6.2-9.91,3.63-14.15-1.86-3.07-7-5.13-10.68-4.39-1.67.34-3.3,1.07-5,.81-3.84-.57-6.47.75-8.11,4.23-2,4.24-.68,8.24,1,12.21l-.66.6a33.65,33.65,0,0,1-8.31-12.69c-1.46-4.25-1.73-8.55-2.44-12.84q.57-3.56,1.15-7.09c1.37-2.63,1.46-4.89-1.49-6.63-1.77-1-1.28-2.55-.3-4-.12,1.95.27,3.7,2.35,4.4a20,20,0,0,0,8,1.14c1.63-.14,2.67-1,2.13-2.68-2.58-8.11-5.3-16.17-9.51-23.62-3.74-6.61-8.51-12.64-11.64-19.58-2.82-6.26-5.1-12.76-7.64-19.15-2.77-7-4.16-14.32-5.72-21.87a28.34,28.34,0,0,0-.88,7.2c-.4,5.94-1,11.85-1.51,17.78-.19,2.41-.39,4.88,1.16,7a215.1,215.1,0,0,0,6.63,37.08c1.88,6.88,2.79,14.07,7.07,20.11,1,1.44-.31,1.41-1.15,1.52a62.93,62.93,0,0,1-27.35-2.7c-1-.32-1.83-1.33-3-1.2-3.8.46-7-1.4-10.39-2.54-.72-.25-1.53-.66-2,0-1,1.33-2.09.68-3.14.37a37.54,37.54,0,0,1-6.84-2.62,59.13,59.13,0,0,0-5.83-2.69,1.89,1.89,0,0,0-2.61.79,1.83,1.83,0,0,0,1,2.49,9.36,9.36,0,0,1,4.3,5.4,2.24,2.24,0,0,0,.12,2.31,39.4,39.4,0,0,1,3.6,17.62c-.07,2.49,0,5.08-1.44,7.35l-1.61,1.83a8.16,8.16,0,0,0-.69-3.09,10.13,10.13,0,0,0-8.86-5.81c-4.29-.21-7.48,2-9.65,5.53-3.39,5.43-2.68,10.57,1.64,14l-.77.65c-9.78-4.12-16.06-16.65-13.72-27.42.74-3.4,1.56-6.79,2.39-10.37a9.09,9.09,0,0,0-3.82,3.33,36.75,36.75,0,0,0-7.64,23.86,7,7,0,0,1-1.07,4.39c-3.09.47-3,2.65-2.7,5-1.86,1.81-3.75.69-5.89-.28,1.25,3.8-.64,7.23,0,10.71a14.24,14.24,0,0,0,8,21.6,17.64,17.64,0,0,1,1.73.74c.33.73.61,1.49,1,2.19a42.1,42.1,0,0,0,18,17.43c4.34,2.19,4.61,3.59,2.43,7.67-1.56,3.05-4.19,4.13-7.43,3.94a59.49,59.49,0,0,0-11.4.2,12.26,12.26,0,0,1-6.07-1.07A68.34,68.34,0,0,1,85.42,338c-2.81-2.17-5.57-4.36-7.44-7.45-.39-.63-.79-1.22-1.61-1.29.57-.86,0-1.54-.34-2.27a101.52,101.52,0,0,1-7.86-43.57c.06-1.26,0-2.53,0-3.8,0-.74,0-1.57-.87-1.8s-1.26.61-1.48,1.26a39.82,39.82,0,0,0-2,5.86c-1.6,9.1-1.26,18.49-4.26,27.38a7.49,7.49,0,0,0,.15,3.21c.23,1.51.58,3,.88,4.5-6.54-4-9.6-10.48-12-17.23-5.41-15.19-6.52-31-5.82-46.94.17-4-.57-8-.82-11.92-.81-12.68,1.27-25.13,2.45-37.67,2.08-22,11.82-41.1,22.48-59.81,9.42-16.52,20.38-32,34-45.42,3.63-3.59,8.41-5.56,12.27-8.89a129,129,0,0,1,34.2-20.93c5.26-2.23,10.2-5.21,15.51-7.27,5-1.94,9.83-4.84,15.58-3.82-2.55,2.24-5.83,3.27-8.59,5.15a83,83,0,0,0-10.23,8.54c-3.63,3.44-7.81,6.43-11.25,10.15a44,44,0,0,0-7.18,9.68c4-2.21,8.1-4.18,11.43-7.09a55.89,55.89,0,0,1,20.92-11.71c9.07-2.71,18.19-5.25,27.71-6.14,9.13-.85,18-.5,26.65,3,3.38,1.37,6.28,3.58,9.59,5-3.72-4.5-8.74-6.8-14-8.85-10.41-4-20.81-7.2-32.09-3.65a3.09,3.09,0,0,1-4.13-2.82c-.19-2-1.11-2.46-2.82-2.35C183.46,59.13,182.55,59.09,181.64,59.09ZM95.93,271.57l2.76-8.7c2.48-8.56,7.41-15.57,14.64-21.83-2.38,0-4.2-.54-5.36.1-3,1.66-5.56.45-8.24-.54.8-.19,1.86-.3,1.22-1.49-1.78-3.33-2-7.12-3.39-10.58a45.64,45.64,0,0,1-3.2-17.74c.28-10.6.74-21.19.58-31.8a79.5,79.5,0,0,1,.42-10.56,176.88,176.88,0,0,1,7.82-34.8c.25-.77,1.11-1.43.61-2.39-1,0-1.11.71-1.44,1.22a76,76,0,0,0-5.57,11.17c-3.27,7.57-6.35,15.2-8,23.33-1.86,9.39-2.08,19-3.1,28.47-.24,2.22-.9,4.5-.54,6.72,1.43,8.81,1.93,17.73,3.27,26.54.38,2.54-.39,5.74,2.65,7.42-1.79.24-1.14,1.6-1,2.52.27,2.42.88,4.8,1,7.22.34,6.26.51,12.51,2.41,18.59A67.23,67.23,0,0,1,95,272.1c0,.58-.26,1.19.25,1.76A4.18,4.18,0,0,0,95.93,271.57Zm24.29-170.33a68.45,68.45,0,0,1,7.45-7.11c1.06-.91,1.84-1.38,3.32-.74,2.4,1,4.28-.48,4.3-3.07a5.42,5.42,0,0,0-3-4.84,5,5,0,0,0-5.62.62A110.48,110.48,0,0,0,109.21,102a91.66,91.66,0,0,0-6.43,8,4.58,4.58,0,0,0,0,5.59c1.45,1.92,3.44,2.2,5.61,1.23.5-.22,1-.4,1.5-.64,3.43-1.67,3.8-1.55,5.36,2,.36.83.64,1.7.93,2.55q1.13,3.34,2.23,6.69a186.12,186.12,0,0,0,8-20c1.1-3.31-.58-5.65-3.42-6.24C122.05,101,121.29,101.91,120.22,101.24Zm157-16.37c-5.69-2-10.5-5.12-15.75-7.29A4.37,4.37,0,0,0,255.87,79c-1.36,1.82-.43,3.52.77,5.18C259,87.49,262,90.35,263,94.51c.56,2.36-.26,4-2.63,4.28a20.38,20.38,0,0,1-6.23-.19c-4.7-1-8.76-3.3-12.84-5.7a4.16,4.16,0,0,0-5.46.57c-1.74,1.78-.12,2.91.81,4.17.48.65,1.08,1.22,1.52,1.9,2.71,4.11,7.18,6.64,9.69,10.95a2.25,2.25,0,0,0,2.95.67,2.5,2.5,0,0,0,1.46-2.9,23.62,23.62,0,0,0-2.23-6.38c-.3-.64-1.07-1.57-.32-2.21s1.53.17,2.19.58a81,81,0,0,0,10,5,4.11,4.11,0,0,0,4.05-.36c3.61-2,4.77-5.47,5.74-9.11C272.69,91.89,273,87.65,277.18,84.87Zm-111.73,47a18.84,18.84,0,0,0,5.55-6.32,5.24,5.24,0,0,1,3.51-2.71,9.83,9.83,0,0,1,8,1.37,24,24,0,0,0,9,3.68c.78.13,1.62.82,2.29.11s0-1.81-.33-2.5a58.45,58.45,0,0,1-3.48-8.24c-1.1-3.14-1.53-6.49-3.32-9.43-2.64-4.31-6.4-5.83-9.94-3.43-2.88,2-5.28,4.49-6.22,8C168.85,118.64,167.25,124.93,165.45,131.84Zm-36.08,2a10.49,10.49,0,0,0,5.24-2.39c2.62-2.07,5.23-4.16,7.87-6.21,3.63-2.81,4.14-2.73,7.06.69a32.84,32.84,0,0,0,2.88,2.9c.62.56,1.09,1.79,2.11,1.27.77-.39.36-1.5.35-2.27a64.81,64.81,0,0,1,2.69-21.14c.52-1.68.44-3-1-4.1a4.06,4.06,0,0,0-4.83-.42,14,14,0,0,0-2.84,2.5C141,113.17,135.5,123.4,129.37,133.8Zm104.79-14.3A73.48,73.48,0,0,1,216.35,102a6,6,0,0,0-10.25.86,18.43,18.43,0,0,0-1.86,11.57,11.74,11.74,0,0,1,0,2.65c-.18,2.65-1.22,5-2.53,7.77,2.81-1.34,4.42-3.48,6.54-4.91,3.53-2.39,6.7-5.82,11.68-4.19,2.65.87,5.3,1.74,7.93,2.66A13.92,13.92,0,0,0,234.16,119.5Zm27.65-51.31c-.05,1.86,1.23,3.59,3.91,4.2,4.25,1,8.17,2.76,12.2,4.28.51.18,1,.56,1.52.16.65-.55.24-1.19-.08-1.71-3-4.92-7.07-8.66-12.62-10.43A3.66,3.66,0,0,0,261.81,68.19ZM137.37,253.38c0-.85,0-1.48,0-2.11-.06-1.71-2.28-4.17-4-4.15-2.26,0-1.71,2.09-2.12,3.39a5.67,5.67,0,0,0,.42,3.71c.61,1.59,1.18,3.33,3.56,2.85S137.64,255,137.37,253.38Zm104.61.74c0,2.06,1.66,4.41,3.42,4.25A3.6,3.6,0,0,0,249,255c.13-1.11-3-4.92-3.32-4.48C244.7,252,241.9,251.37,242,254.12Z" transform="translate(-41.73 -22.05)"/><path class="cls-2" d="M138.63,423.13c3.29-7.14,6.16-14.52,10-21.38,4.26-7.66,9.18-14.92,16.3-20.5a182.11,182.11,0,0,1,18.14-12.34,4.66,4.66,0,0,1,2.91-.4c1,.73,2.15,1.43,2.19,2.91.14,5.24,1.19,10.42,1,15.68-2.11,1.89-2.17,4.58-2.75,7.07-.9,1.29-.77,2.89-1.31,4.32-2.64,6.94-4.15,14.2-5.63,21.46-.15.76-.66,2,.42,2.41.93.37,1.63-.54,2.28-1.17a13.47,13.47,0,0,1,2.58-2.39c5.76-3.05,11-7,16.9-9.81,6.35-3,11.34-8,17.11-11.9,3.11-1.66,6.2-3.36,9.34-5,1.52-.78,3.22-1.25,4.23-2.8a6.13,6.13,0,0,0,2.81-.87c3.87-1.91,7.25-4.7,11.24-6.41a36.71,36.71,0,0,0,10-6.39c3.46-1.57,5.33-4.11,4.83-8a5.64,5.64,0,0,1,1.17-3.75,22.49,22.49,0,0,1,13.74-1,72.07,72.07,0,0,1,29.38,14.79C312.1,383.09,319,388.06,326,393c11,7.89,19.68,17.91,26.89,29.28,1.13,1.78,1.63,3.64.57,5.65-1.58,0-2.88-2.29-4.45-1-2.56,2.17-5.57,1.91-8.45,1.9A53.92,53.92,0,0,0,325.22,431c-2.78.8-5.45,2.14-8.37,2.33-13.38.88-26,4.52-38.3,9.74a245.8,245.8,0,0,0-48,26.6c-11.77,8.48-22.65,17.93-31.76,29.28-4,5-7.85,10.24-11.83,15.3a18.14,18.14,0,0,0-3.26,5.3c-2.47,0-3.67-1-4.41-3.62-1.41-4.88-.86-10-2.41-14.88-2.37-7.57-2-15.73-3.81-23.5-2.36-10.09-2.77-20.48-2.6-30.74.1-5.81-1.34-12,1.52-17.62a2,2,0,0,0-.66-2.43c-.91-.83-1.64-.1-2.42.39a20.73,20.73,0,0,0-4.74,4.46c-3.48,4.2-6.94,8.45-7.1,14.3-.87,1-2.13,1.77-2.19,3.32l.05,0c-.78-.12-1,.46-1.44,1a149.9,149.9,0,0,0-17,27.75,203,203,0,0,0-9,20.36c-1.41,3.92-4.84,4.57-7.49,1.63-.2-2.89-1.19-5.81.14-8.68a5.74,5.74,0,0,0,.73-1.41c2.85-14.72,6.18-29.33,10.11-43.8a22.53,22.53,0,0,0,1.7-5.37C134.93,434.93,137.39,429.24,138.63,423.13Zm40.59,85.54c.26,1.6.59,3.2.76,4.82.09.87.14,1.68,1.13,1.92a1.82,1.82,0,0,0,2-1c3.73-6.24,8.58-11.68,12.68-17.66,7.36-10.71,15.4-20.72,25.26-29.4,14-12.28,29.29-21.88,47-27.63,4-1.29,8-2.38,11.93-3.77,16.5-5.85,32.87-12.17,50.55-13.56,4.46-.34,8.95-1.26,13.36.65,1.83.79,3.66-.54,4-2.53.5-2.59-3.78-8.35-6.39-8.16a143.81,143.81,0,0,0-16.73,1.82c-9,1.72-17.73,4.31-26.55,6.69a400.89,400.89,0,0,0-41.38,13.42c-17.86,7-33,18.16-47.34,30.58a96.09,96.09,0,0,0-17.42,19.05c-3.29,5-6.31,10.13-9.42,15.22C181,502,179.06,505,179.22,508.67Zm-46.31-41h-.39c0-3.27,0-6.54,0-9.81,0-.83.45-2-.87-2.21s-1.51,1-1.84,1.93c-.15.42-.33.84-.46,1.27-2.89,9.67-2.8,19.85-4.94,29.65a1.68,1.68,0,0,0,.91,2.07,1.71,1.71,0,0,0,2.22-1.1c1.55-3.26,3.92-6.09,4.94-9.62a11.33,11.33,0,0,0,.46-3.48C132.86,473.48,132.91,470.58,132.91,467.68Z" transform="translate(-41.73 -22.05)"/><path class="cls-3" d="M398.72,552.76c-3.05,3.29-7.13,3.44-11.09,3.21-4.86-.27-9.23,1.14-13.75,2.55-5.09,1.59-10.54,1.48-15.83,1.84-13.16.89-26.34,1.45-39.52,2.16-4.42.24-8.86.33-13.29.5-9,.35-18.05,1.27-27.12,1.38-4.32.05-8.68.21-13,.38,3.22-3.54,6.1-7.37,9.95-10.34a24.33,24.33,0,0,0,8.74-12.11,20.68,20.68,0,0,1,3.36-5.88c6-8.22,13.13-15.46,20.38-22.57.68-.66,1.61-1.17,1.91-2.49a16.66,16.66,0,0,0-3.25,0,26.23,26.23,0,0,1-11.86-.12C289.13,510,283.2,510,280.26,504c-1.43-2.9-1.32-4.87,1.26-6.82,8.58-6.51,17.56-12.52,24.82-20.63a39.64,39.64,0,0,1,6.21-5.26c4.08-3,7-6.54,7.75-11.83a40.38,40.38,0,0,1,2.74-9.08c.86-2.16.95-4.89,2.84-6.38,5.78-4.57,11.92-8.63,19.23-10.33,1.86-.43,4.36-1.11,5.71.46,2.57,3,5.5,5.79,6.46,9.89,1.38,5.9,2.83,11.78,4.39,17.62.9,3.37.75,7.21,3.12,10,3,3.56,3.9,7.63,4,12.06a2.35,2.35,0,0,1-.94,2.14,49.88,49.88,0,0,0-6.64,5.94c-5.77,5.66-12.52,10.12-19.43,14.27-6.68,4-7,4.9-2.23,11.16,2.16,2.85,4.51,5.29,8.8,4.69,2.46-.35,3.45-2.2,5-3.4,3.39-2.6,6.86-5.42,9-9,2.24-3.79,4.63-7.56,6.6-11.53.31-.62.48-1.56,1.33-1.55s.95,1,1.18,1.63c1.48,4.17,2.65,8.47,4.94,12.32a31,31,0,0,1,3.12,8.1c3.18,12.22,9.69,22.77,16.42,33.22A2.6,2.6,0,0,0,398.72,552.76Z" transform="translate(-41.73 -22.05)"/><path class="cls-3" d="M250.89,564.78c-9.12-.06-18.2.77-27.28,1.6-2.87.26-5.77-.23-8.65.48a1.85,1.85,0,0,1-2.17-1.93c-.07-1.44-.72-1.7-2-1.82a171,171,0,0,0-20.62-.47c-7.17.19-14.3-.43-21.43-.76-3.92-.17-7.91.94-11.77-.42a20.06,20.06,0,0,1,1.58-2.51c6.17-7.23,11.33-15.2,16.88-22.87,3.23-4.46,5.61-9.47,9-13.79,1.59-.08,3.23.27,4.45-1.35,3.93-5.2,8.44-9.91,12.81-14.74a249.48,249.48,0,0,1,38.21-34.55,190.82,190.82,0,0,1,22.63-14.48c7.66-4.1,15.35-8.22,23.88-10.39,6.34-1.6,12.85-2,19.32-2.32,3.36-.18,6.74-1.11,10.39-.46-1.28,1.21-2.45,2.18-3.46,3.3-6.31,7-12.62,13.94-18.63,21.18-6.33,7.62-12.39,15.43-16.58,24.41-4.53,9.69-9.26,19.23-12.49,29.58-3.4,10.88-10.25,20.5-13,31.8-.73,3-.93,6.05-1.89,9C249.77,564.07,250.64,564.25,250.89,564.78Zm12.91-46c-1.7-.7-2.64,0-3.58,1-4.5,4.59-8.29,9.8-12.63,14.52-4.65,5.06-9.13,10.35-15.17,13.89a69.11,69.11,0,0,1-15.56,6.28c-1.38.41-2.74.72-3.62,2.14s-1.08,1.89.84,2.27c6.81,1.34,13.59,2.89,20.4,4.29a49.83,49.83,0,0,0,9.12,1.09,2.15,2.15,0,0,0,2.49-1.83c.87-2.94,2.18-5.74,3.22-8.64C253.54,541.93,258.34,530.32,263.8,518.75Z" transform="translate(-41.73 -22.05)"/><path class="cls-4" d="M250.89,564.78c-.25-.53-1.12-.71-.84-1.55,1-2.91,1.16-6,1.89-9,2.77-11.3,9.62-20.92,13-31.8,3.23-10.35,8-19.89,12.49-29.58,4.19-9,10.25-16.79,16.58-24.41,6-7.24,12.32-14.21,18.63-21.18,1-1.12,2.18-2.09,3.46-3.3-3.65-.65-7,.28-10.39.46-6.47.34-13,.72-19.32,2.32-8.53,2.17-16.22,6.29-23.88,10.39a190.82,190.82,0,0,0-22.63,14.48,249.48,249.48,0,0,0-38.21,34.55c-4.37,4.83-8.88,9.54-12.81,14.74-1.22,1.62-2.86,1.27-4.45,1.35-.24-.9-.49-1.8-.73-2.7a18.14,18.14,0,0,1,3.26-5.3c4-5.06,7.79-10.27,11.83-15.3,9.11-11.35,20-20.8,31.76-29.28a245.8,245.8,0,0,1,48-26.6c12.32-5.22,24.92-8.86,38.3-9.74,2.92-.19,5.59-1.53,8.37-2.33a53.92,53.92,0,0,1,15.31-2.14c2.88,0,5.89.27,8.45-1.9,1.57-1.32,2.87,1,4.45,1,.23,2.45,2.09,3.89,3.59,5.48,3.89,4.08,5.44,9.2,6.78,14.45.3,1.2.32,2.49,1.1,3.54a43.08,43.08,0,0,0,6,16.89c.87,3.2,2.85,5.84,4.4,8.69,1.92,3.52.92,6.88-.33,10.15a5.09,5.09,0,0,0-.36,3.53c3.57,12.54,9.2,24.3,13.73,36.47,2.72,7.3,7.13,14,11.52,20.58,2.44,3.63,3,2.87-1.15,5a2.6,2.6,0,0,1-2.8-1.12c-6.73-10.45-13.24-21-16.42-33.22a31,31,0,0,0-3.12-8.1c-2.29-3.85-3.46-8.15-4.94-12.32-.23-.65-.29-1.61-1.18-1.63s-1,.93-1.33,1.55c-2,4-4.36,7.74-6.6,11.53-2.12,3.59-5.59,6.41-9,9-1.59,1.2-2.58,3-5,3.4-4.29.6-6.64-1.84-8.8-4.69-4.74-6.26-4.45-7.15,2.23-11.16,6.91-4.15,13.66-8.61,19.43-14.27a49.88,49.88,0,0,1,6.64-5.94,2.35,2.35,0,0,0,.94-2.14c-.06-4.43-.91-8.5-4-12.06-2.37-2.76-2.22-6.6-3.12-10-1.56-5.84-3-11.72-4.39-17.62-1-4.1-3.89-6.93-6.46-9.89-1.35-1.57-3.85-.89-5.71-.46-7.31,1.7-13.45,5.76-19.23,10.33-1.89,1.49-2,4.22-2.84,6.38a40.38,40.38,0,0,0-2.74,9.08c-.74,5.29-3.67,8.83-7.75,11.83a39.64,39.64,0,0,0-6.21,5.26c-7.26,8.11-16.24,14.12-24.82,20.63-2.58,1.95-2.69,3.92-1.26,6.82,2.94,6,8.87,6,14.07,7.32a26.23,26.23,0,0,0,11.86.12,16.66,16.66,0,0,1,3.25,0c-.3,1.32-1.23,1.83-1.91,2.49-7.25,7.11-14.36,14.35-20.38,22.57a20.68,20.68,0,0,0-3.36,5.88,24.33,24.33,0,0,1-8.74,12.11c-3.85,3-6.73,6.8-9.95,10.34C261.75,568.56,255.63,568.56,250.89,564.78Z" transform="translate(-41.73 -22.05)"/><path class="cls-5" d="M183.7,519.59c.24.9.49,1.8.73,2.7-3.42,4.32-5.8,9.33-9,13.79-5.55,7.67-10.71,15.64-16.88,22.87a20.06,20.06,0,0,0-1.58,2.51c-4.89,3.94-8.06,9.56-13.08,13.4-2.41,1.85-4.68,3.89-7.65,6.37,1.82-8.93,5.29-16.51,7.29-24.51,2.49-6.23,2.86-13.07,5.46-19.28.36-.86-.17-1.6-.65-2.25-5-6.67-6.88-14.49-8.44-22.44-1.08-5.48-1.81-11.17-.53-16.49,2.8-11.62,7.38-22.69,12.11-33.67a46.29,46.29,0,0,0,3.48-13.36l-.05,0c1.07-.89,3.26-1,2.19-3.32.16-5.85,3.62-10.1,7.1-14.3a20.73,20.73,0,0,1,4.74-4.46c.78-.49,1.51-1.22,2.42-.39a2,2,0,0,1,.66,2.43c-2.86,5.65-1.42,11.81-1.52,17.62-.17,10.26.24,20.65,2.6,30.74,1.82,7.77,1.44,15.93,3.81,23.5,1.55,4.93,1,10,2.41,14.88C180,518.57,181.23,519.6,183.7,519.59Zm-28.28-8.75c-.8.85-.56,1.8-.24,3.14.33-1.29.56-2.23.8-3.17s.29-1.85.44-2.78.39-2.16.58-3.24l1.08-6c.27-1.92.4-3.87.85-5.75a225.76,225.76,0,0,0,4.76-29c.87-1.59.38-3.31.48-5,.72-.66.75-1.39.16-2.45l-.66,2.5-.53,3.24a193.48,193.48,0,0,0-4.49,26.5,4.27,4.27,0,0,0-.44,2.89.52.52,0,0,0-.05.5,3.94,3.94,0,0,0-.46,2.77l-.12,1a26.24,26.24,0,0,0-1.15,7c-.72,1.2-.44,2.53-.54,3.82C155.15,508.11,155.49,509.5,155.42,510.84Z" transform="translate(-41.73 -22.05)"/><path class="cls-3" d="M154.93,449.23a46.29,46.29,0,0,1-3.48,13.36c-4.73,11-9.31,22.05-12.11,33.67-1.28,5.32-.55,11,.53,16.49,1.56,8,3.46,15.77,8.44,22.44.48.65,1,1.39.65,2.25-2.6,6.21-3,13-5.46,19.28-1-1.94-1.5.06-1.51.35,0,4.08-2.79,3.94-5.67,3.92-5.34,0-10.69-.34-15.95,1a2.5,2.5,0,0,1-1.83-.21c-1.87-1.22-3.81-.89-5.76-.45-1,.23-2.06.47-2.82-.36-1.08-1.18-2.42-1-3.77-1.09-2.85-.24-5.77.7-8.55-.52a140.34,140.34,0,0,1,18.56.71c-1.68-2.63-4-3.69-5.62-5.43-4.81-5.09-9-10.82-15.54-14.07-1-.52-.79-1.18-.37-2.2,1.16-2.77,3.85-4.25,5.25-6.86a304.57,304.57,0,0,1,16.94-28.39c.8-1.18,1.27-2.89,3.1-3.15,2.65,2.94,6.08,2.29,7.49-1.63a203,203,0,0,1,9-20.36,149.9,149.9,0,0,1,17-27.75C153.89,449.69,154.15,449.11,154.93,449.23Z" transform="translate(-41.73 -22.05)"/><path class="cls-6" d="M189.2,387.1c.14-5.26-.91-10.44-1-15.68,0-1.48-1.15-2.18-2.19-2.91-.5-2.13-1.63-2.89-3.93-2.38-4.4,1-8.56-.85-12.83-1.47a42.29,42.29,0,0,1-14.48-5.12c-6-3.32-12.2-6.35-18.33-9.48a32.26,32.26,0,0,1-7.28-4.7,1.81,1.81,0,0,0-1.92-.66c2.18-4.08,1.91-5.48-2.43-7.67a42.1,42.1,0,0,1-18-17.43c-.4-.7-.68-1.46-1-2.19l8.66,1.08c.29.46.55.94.88,1.37,12.16,15.74,27.14,27.75,45.62,35.5a63,63,0,0,0,26.46,4.88c7.48-.22,14.85-2,22.21-3.54,19.25-4.15,37.95-10.07,56.52-16.48a7.43,7.43,0,0,0,.12,7.59c-2.94.33-4,2.27-4.5,4.91a46.39,46.39,0,0,0-.39,9.49c0,.76.1,1.48,1,1.66a5.64,5.64,0,0,0-1.17,3.75c.5,3.92-1.37,6.46-4.83,8,1.4-4.46-1-8.74-.68-13.16a2.23,2.23,0,0,0-1.49-2.1c-1.4-3-2.5-3.51-5.75-2.73a28.25,28.25,0,0,0-3.35,1c-12.54,4.86-24.26,11.4-36.16,17.57C202.29,379.73,195.78,383.48,189.2,387.1Z" transform="translate(-41.73 -22.05)"/><path class="cls-4" d="M120,499.94c-1.83.26-2.3,2-3.1,3.15a304.57,304.57,0,0,0-16.94,28.39c-1.4,2.61-4.09,4.09-5.25,6.86-.42,1-.66,1.68.37,2.2,6.49,3.25,10.73,9,15.54,14.07,1.64,1.74,3.94,2.8,5.62,5.43a140.34,140.34,0,0,0-18.56-.71c-2.46-.54-4.91-1.13-7.38-1.62-3.2-.64-4.65-2.3-4.62-5.61.06-7.1,1.61-13.78,5.8-19.66a26.5,26.5,0,0,0,4-9.16c3.63-14.69,9-28.81,14.2-43,7.22-19.65,17.55-37.72,27.76-55.86.31-.56.58-1.14,1.28-1.31-1.24,6.11-3.7,11.8-6,17.55-1.8.58-1.68,2.34-2.28,3.67-1.63,3.73-3.32,7.43-4.89,11.18-5.46,13-10.71,26.09-15.43,39.38-1.88,5.26-4,10.45-5.32,15.92a3.93,3.93,0,0,0-.94,2.42c1-.36,1.1-1.24,1.47-1.89,2.88-4.29,5.57-8.72,8.71-12.8,1.93-2.5,2.61-6.14,6.14-7.3C118.77,494.13,119.76,497.05,120,499.94Z" transform="translate(-41.73 -22.05)"/><path class="cls-7" d="M181.64,59.09c.91,0,1.82,0,2.72,0,1.71-.11,2.63.35,2.82,2.35a3.09,3.09,0,0,0,4.13,2.82c11.28-3.55,21.68-.39,32.09,3.65,5.28,2,10.3,4.35,14,8.85-3.31-1.44-6.21-3.65-9.59-5-8.64-3.48-17.52-3.83-26.65-3-9.52.89-18.64,3.43-27.71,6.14A55.89,55.89,0,0,0,152.55,86.6c-3.33,2.91-7.47,4.88-11.43,7.09A44,44,0,0,1,148.3,84c3.44-3.72,7.62-6.71,11.25-10.15a83,83,0,0,1,10.23-8.54c2.76-1.88,6-2.91,8.59-5.15Z" transform="translate(-41.73 -22.05)"/><path class="cls-7" d="M60.56,320.07c-.3-1.5-.65-3-.88-4.5a7.49,7.49,0,0,1-.15-3.21c3-8.89,2.66-18.28,4.26-27.38a39.82,39.82,0,0,1,2-5.86c.22-.65.53-1.51,1.48-1.26s.87,1.06.87,1.8c0,1.27,0,2.54,0,3.8A101.52,101.52,0,0,0,76,327c.3.73.91,1.41.34,2.27a5.31,5.31,0,0,1-4.08-1A112,112,0,0,1,60.56,320.07Z" transform="translate(-41.73 -22.05)"/><path class="cls-7" d="M303.34,341.39c-1.59-.34-.45-.92-.09-1.36,2.71-3.26,5.53-6.42,8.12-9.77a37.86,37.86,0,0,0,7.75-18.78,22.74,22.74,0,0,1,.66-2.73c3.22,9.79.79,19.12-2.63,28.35-.53,1.44-.92,2.93-1.37,4.39A86.08,86.08,0,0,0,303.34,341.39Z" transform="translate(-41.73 -22.05)"/><path class="cls-8" d="M370.91,468.33a43.08,43.08,0,0,1-6-16.89A40.21,40.21,0,0,1,370.91,468.33Z" transform="translate(-41.73 -22.05)"/><path class="cls-9" d="M266.13,340.22c-18.57,6.41-37.27,12.33-56.52,16.48-7.36,1.58-14.73,3.32-22.21,3.54a63,63,0,0,1-26.46-4.88c-18.48-7.75-33.46-19.76-45.62-35.5-.33-.43-.59-.91-.88-1.37,1.17,0,2.35,0,3.52.12,8.6.88,16.49-.47,22.84-7a11.53,11.53,0,0,0-1.74-17.68c-3.52-2.42-7.52-3.83-11.43-5.42,1.64-.26,3.4.56,4.93-.57,3.28.11,6.55.18,9.25-2.18,3-4,5.65-8.06,6.63-13,1.4-2.27,1.37-4.86,1.44-7.35a39.4,39.4,0,0,0-3.6-17.62,2.24,2.24,0,0,1-.12-2.31c2.85-1.08,5,.87,7.3,1.85,4.44,1.94,9.35,1.79,13.79,3.55.48.18,1.22-.21,1.81-.42,5.62-2,11.31-1.49,17.1-.94,4.06.39,8,1.42,12,2,4.85.66,9.7.18,14.56,0,1.16,1.57.27,3.4.62,5.07.71,4.29,1,8.59,2.44,12.84A33.65,33.65,0,0,0,224.07,282c2.52,3.26,5.5,5.67,9.93,5.45-.23.57-.27.9.56,1.07a30.68,30.68,0,0,0,8.2,1.08c-.81.58-1.67,1.09-2.42,1.73-4.3,3.69-8.73,11-3.45,18,3.07,4,7.69,6.11,12.6,6.88,10.13,1.57,20,.89,29.26-4.24,1-.54,1.89-1.84,3.35-1-1.78,6-4.91,11.39-7.39,17.06A35.76,35.76,0,0,1,266.13,340.22ZM169,337.36c-.11-1.05-1.16-1.17-1.54-1.89-.91-1.7-1-3.49.52-4.69s2.86,0,3.75,1.39A15.83,15.83,0,0,1,174,337c.18.77-.7,2.41,1.17,2,1.58-.36,1.77-1.64,1.17-3-.69-1.57-1.28-3.2-2.12-4.69a10.79,10.79,0,0,0-4.09-4.28,3.28,3.28,0,0,0-4,.39c-1.53,1.36-1.94,5.45-.74,8C166.08,336.83,167,338,169,337.36Z" transform="translate(-41.73 -22.05)"/><path class="cls-10" d="M282.1,311c-1.46-.83-2.39.47-3.35,1-9.23,5.13-19.13,5.81-29.26,4.24-4.91-.77-9.53-2.83-12.6-6.88-5.28-7-.85-14.31,3.45-18,.75-.64,1.61-1.15,2.42-1.73a60,60,0,0,1,9.54-2.87c3-.55,6.12-.28,9-1.47,2.43.79,4.81,1,7-.59.75,1.49,2.16,1.1,3.35,1.06,4.51-.16,8.78.55,12.57,3.15,1.29.89,1.45.31,1.55-.88.18-2.2-.58-4.47.5-6.6,0,1.26,0,2.52,0,3.78a14.72,14.72,0,0,0,1.85,8.2c2.66,4.59,1.12,10.46-3.2,14.75Z" transform="translate(-41.73 -22.05)"/><path class="cls-10" d="M127.63,288.51c3.91,1.59,7.91,3,11.43,5.42a11.53,11.53,0,0,1,1.74,17.68c-6.35,6.53-14.24,7.88-22.84,7-1.17-.12-2.35-.08-3.52-.12l-8.66-1.08a17.64,17.64,0,0,0-1.73-.74,14.24,14.24,0,0,1-8-21.6c1.64-2.71,4.42-4.3,6.49-6.59.76,0,1.58.25,2.15-.52,2.64-1,5.65-.56,8.14-2.13C117.78,286.83,122.85,286.86,127.63,288.51Z" transform="translate(-41.73 -22.05)"/><path class="cls-11" d="M212.7,251.42c-4.86.21-9.71.69-14.56,0-4-.54-7.92-1.57-12-2-5.79-.55-11.48-1-17.1.94-.59.21-1.33.6-1.81.42-4.44-1.76-9.35-1.61-13.79-3.55-2.26-1-4.45-2.93-7.3-1.85a9.36,9.36,0,0,0-4.3-5.4,1.83,1.83,0,0,1-1-2.49,1.89,1.89,0,0,1,2.61-.79,59.13,59.13,0,0,1,5.83,2.69,37.54,37.54,0,0,0,6.84,2.62c1,.31,2.15,1,3.14-.37.48-.64,1.29-.23,2,0,3.39,1.14,6.59,3,10.39,2.54,1.15-.13,1.95.88,3,1.2a62.93,62.93,0,0,0,27.35,2.7c.84-.11,2.18-.08,1.15-1.52-4.28-6-5.19-13.23-7.07-20.11a215.1,215.1,0,0,1-6.63-37.08c1.32.26,1.78,1.21,2.22,2.4A144,144,0,0,0,211,227.5c2.76,3.72,4.09,7.1,1.67,11.31-1,1.41-1.47,2.92.3,4,3,1.74,2.86,4,1.49,6.63-.22-.24-.13-1.38-.78-.32A15.64,15.64,0,0,0,212.7,251.42Z" transform="translate(-41.73 -22.05)"/><path class="cls-7" d="M91.11,236.11c-3-1.68-2.27-4.88-2.65-7.42-1.34-8.81-1.84-17.73-3.27-26.54-.36-2.22.3-4.5.54-6.72,1-9.49,1.24-19.08,3.1-28.47,1.6-8.13,4.68-15.76,8-23.33a76,76,0,0,1,5.57-11.17c.33-.51.49-1.22,1.44-1.22.5,1-.36,1.62-.61,2.39a176.88,176.88,0,0,0-7.82,34.8A79.5,79.5,0,0,0,94.94,179c.16,10.61-.3,21.2-.58,31.8a45.64,45.64,0,0,0,3.2,17.74c1.34,3.46,1.61,7.25,3.39,10.58.64,1.19-.42,1.3-1.22,1.49-2.7.32-4.15-2.09-6.34-2.89Z" transform="translate(-41.73 -22.05)"/><path class="cls-7" d="M212.68,238.81c2.42-4.21,1.09-7.59-1.67-11.31a144,144,0,0,1-19.36-35.64c-.44-1.19-.9-2.14-2.22-2.4-1.55-2.15-1.35-4.62-1.16-7,.47-5.93,1.11-11.84,1.51-17.78a28.34,28.34,0,0,1,.88-7.2c1.56,7.55,3,14.89,5.72,21.87,2.54,6.39,4.82,12.89,7.64,19.15,3.13,6.94,7.9,13,11.64,19.58,4.21,7.45,6.93,15.51,9.51,23.62.54,1.72-.5,2.54-2.13,2.68a20,20,0,0,1-8-1.14C213,242.51,212.56,240.76,212.68,238.81Z" transform="translate(-41.73 -22.05)"/><path class="cls-12" d="M120.22,101.24c1.07.67,1.83-.26,2.77-.07,2.84.59,4.52,2.93,3.42,6.24a186.12,186.12,0,0,1-8,20q-1.11-3.34-2.23-6.69c-.29-.85-.57-1.72-.93-2.55-1.56-3.55-1.93-3.67-5.36-2-.49.24-1,.42-1.5.64-2.17,1-4.16.69-5.61-1.23a4.58,4.58,0,0,1,0-5.59,91.66,91.66,0,0,1,6.43-8A110.48,110.48,0,0,1,126.66,86.1a5,5,0,0,1,5.62-.62,5.42,5.42,0,0,1,3,4.84c0,2.59-1.9,4.09-4.3,3.07-1.48-.64-2.26-.17-3.32.74A68.45,68.45,0,0,0,120.22,101.24Z" transform="translate(-41.73 -22.05)"/><path class="cls-3" d="M261.31,285.28c-2.89,1.19-6,.92-9,1.47a60,60,0,0,0-9.54,2.87,30.68,30.68,0,0,1-8.2-1.08c-.83-.17-.79-.5-.56-1.07l.57-.55c1.47-.24,3,.26,4.43-.56a30.15,30.15,0,0,0,15.93-10.2,4.67,4.67,0,0,0,.82-2,99.53,99.53,0,0,1,4.07-13.51c.74-2.1,2-4,1.12-6.48-.36-1,.53-1.71,1.58-1.69,2.29,0,4.55.19,6.05,2.34.88,1.27,2.17,2.34,2.7,3.73.66,1.73,2.48.3,3.13,1.53a5.13,5.13,0,0,0-1.15,3.75,15.17,15.17,0,0,1-.25,4.55C271.12,275.44,267.44,281.21,261.31,285.28Z" transform="translate(-41.73 -22.05)"/><path class="cls-12" d="M277.18,84.87c-4.23,2.78-4.49,7-5.52,10.89-1,3.64-2.13,7.12-5.74,9.11a4.11,4.11,0,0,1-4.05.36,81,81,0,0,1-10-5c-.66-.41-1.47-1.2-2.19-.58s0,1.57.32,2.21a23.62,23.62,0,0,1,2.23,6.38,2.5,2.5,0,0,1-1.46,2.9,2.25,2.25,0,0,1-2.95-.67c-2.51-4.31-7-6.84-9.69-10.95-.44-.68-1-1.25-1.52-1.9-.93-1.26-2.55-2.39-.81-4.17a4.16,4.16,0,0,1,5.46-.57c4.08,2.4,8.14,4.72,12.84,5.7a20.38,20.38,0,0,0,6.23.19c2.37-.23,3.19-1.92,2.63-4.28-1-4.16-4-7-6.37-10.29-1.2-1.66-2.13-3.36-.77-5.18a4.37,4.37,0,0,1,5.56-1.46C266.68,79.75,271.49,82.83,277.18,84.87Z" transform="translate(-41.73 -22.05)"/><path class="cls-7" d="M278.69,256.45c-.33-.92-1.16-1.59-1.07-2.73.83-10.93-1.83-21.44-3.79-32.05-2-10.81-3.77-21.66-6.55-32.31-.63-2.42-1.6-4.77-1.84-8.07,1.9,3,2.52,5.82,3.45,8.43,5.29,14.91,11,29.66,16.63,44.46,2.87,7.58,3.92,15.54,1.72,23.59-.52,1.9-.19,3.78-.34,5.67-.06.84.34,1.91-1,2.16C283.17,262.8,282.35,258.5,278.69,256.45Z" transform="translate(-41.73 -22.05)"/><path class="cls-13" d="M239,286.36c-1.39.82-3,.32-4.43.56-3.59-1.28-7.29-2.37-9.84-5.5-1.66-4-3-8-1-12.21,1.64-3.48,4.27-4.8,8.11-4.23,1.75.26,3.38-.47,5-.81,3.7-.74,8.82,1.32,10.68,4.39,2.57,4.24.67,11.66-3.63,14.15a29.66,29.66,0,0,1-6.84,3.38Z" transform="translate(-41.73 -22.05)"/><path class="cls-12" d="M165.45,131.84c1.8-6.91,3.4-13.2,5.07-19.47.94-3.51,3.34-6,6.22-8,3.54-2.4,7.3-.88,9.94,3.43,1.79,2.94,2.22,6.29,3.32,9.43a58.45,58.45,0,0,0,3.48,8.24c.36.69,1.12,1.68.33,2.5s-1.51,0-2.29-.11a24,24,0,0,1-9-3.68,9.83,9.83,0,0,0-8-1.37,5.24,5.24,0,0,0-3.51,2.71A18.84,18.84,0,0,1,165.45,131.84Z" transform="translate(-41.73 -22.05)"/><path class="cls-12" d="M129.37,133.8c6.13-10.4,11.59-20.63,19.56-29.17a14,14,0,0,1,2.84-2.5,4.06,4.06,0,0,1,4.83.42c1.41,1.08,1.49,2.42,1,4.1a64.81,64.81,0,0,0-2.69,21.14c0,.77.42,1.88-.35,2.27-1,.52-1.49-.71-2.11-1.27a32.84,32.84,0,0,1-2.88-2.9c-2.92-3.42-3.43-3.5-7.06-.69-2.64,2-5.25,4.14-7.87,6.21A10.49,10.49,0,0,1,129.37,133.8Z" transform="translate(-41.73 -22.05)"/><path class="cls-3" d="M127.63,288.51c-4.78-1.65-9.85-1.68-14.75-2.68-3.28-1.34-6.63-2.59-8.24-6.16a7,7,0,0,0,1.07-4.39,36.75,36.75,0,0,1,7.64-23.86,9.09,9.09,0,0,1,3.82-3.33c-.83,3.58-1.65,7-2.39,10.37-2.34,10.77,3.94,23.3,13.72,27.42,1.12,1.14,2.78,1.22,4.06,2.06C131,289.07,129.27,288.25,127.63,288.51Z" transform="translate(-41.73 -22.05)"/><path class="cls-13" d="M148.44,272.73c-1,5-3.66,9.07-6.63,13-.12-1.16-.8-.7-1.31-.39-3.78,2.34-7.51,1.72-11.23-.14-4.32-3.47-5-8.61-1.64-14,2.17-3.48,5.36-5.74,9.65-5.53a10.13,10.13,0,0,1,8.86,5.81,8.16,8.16,0,0,1,.69,3.09Z" transform="translate(-41.73 -22.05)"/><path class="cls-12" d="M234.16,119.5a13.92,13.92,0,0,1-6.3-1.06c-2.63-.92-5.28-1.79-7.93-2.66-5-1.63-8.15,1.8-11.68,4.19-2.12,1.43-3.73,3.57-6.54,4.91,1.31-2.75,2.35-5.12,2.53-7.77a11.74,11.74,0,0,0,0-2.65,18.43,18.43,0,0,1,1.86-11.57,6,6,0,0,1,10.25-.86A73.48,73.48,0,0,0,234.16,119.5Z" transform="translate(-41.73 -22.05)"/><path class="cls-11" d="M93.39,237.71c2.19.8,3.64,3.21,6.34,2.89,2.68,1,5.22,2.2,8.24.54,1.16-.64,3-.1,5.36-.1-7.23,6.26-12.16,13.27-14.64,21.83-1.63.29-1.81-1-2-2-1.2-7-2.9-13.9-4.46-20.83C92,239,92,238,93.39,237.71Z" transform="translate(-41.73 -22.05)"/><path class="cls-9" d="M286.31,281.42c-1.08,2.13-.32,4.4-.5,6.6-.1,1.19-.26,1.77-1.55.88-3.79-2.6-8.06-3.31-12.57-3.15-1.19,0-2.6.43-3.35-1.06A41.87,41.87,0,0,0,275,273.25c.28-.75.51-1.6,1.55-1.66a17.12,17.12,0,0,0,7.28,2.48,2.22,2.22,0,0,1,1.9,1.36A9.63,9.63,0,0,1,286.31,281.42Z" transform="translate(-41.73 -22.05)"/><path class="cls-11" d="M285.72,275.43a2.22,2.22,0,0,0-1.9-1.36,17.24,17.24,0,0,1-7.28-2.47c-.68-2.83.39-5.64,0-8.47-.15-1.14.2-2.41-1.21-3a6.35,6.35,0,0,0,.56-2c-.14-2.41.81-2.82,2.77-1.68,3.66,2.05,4.48,6.35,7.2,9.15C285.84,268.88,285.78,272.15,285.72,275.43Z" transform="translate(-41.73 -22.05)"/><path class="cls-14" d="M93.39,237.71C92,238,92,239,92.25,240c1.56,6.93,3.26,13.82,4.46,20.83.17,1,.35,2.3,2,2l-2.76,8.7-1,.53a67.23,67.23,0,0,0-1.46-7.66c-1.9-6.08-2.07-12.33-2.41-18.59-.14-2.42-.75-4.8-1-7.22-.1-.92-.75-2.28,1-2.52Z" transform="translate(-41.73 -22.05)"/><path class="cls-12" d="M261.81,68.19a3.66,3.66,0,0,1,4.93-3.5c5.55,1.77,9.61,5.51,12.62,10.43.32.52.73,1.16.08,1.71-.49.4-1,0-1.52-.16-4-1.52-7.95-3.32-12.2-4.28C263,71.78,261.76,70.05,261.81,68.19Z" transform="translate(-41.73 -22.05)"/><path class="cls-15" d="M275.36,260.12c1.41.6,1.06,1.87,1.21,3,.36,2.83-.71,5.64,0,8.47-1,0-1.27.9-1.55,1.65a41.87,41.87,0,0,1-6.65,11.44c-2.23,1.6-4.61,1.38-7,.59,6.14-4.07,9.82-9.84,11.7-16.87a15.17,15.17,0,0,0,.25-4.55,5.13,5.13,0,0,1,1.15-3.75Z" transform="translate(-41.73 -22.05)"/><path class="cls-16" d="M137.37,253.38c.27,1.62.18,3.22-2.15,3.69s-2.95-1.26-3.56-2.85a5.67,5.67,0,0,1-.42-3.71c.41-1.3-.14-3.37,2.12-3.39,1.73,0,3.95,2.44,4,4.15C137.39,251.9,137.37,252.53,137.37,253.38Z" transform="translate(-41.73 -22.05)"/><path class="cls-15" d="M104.64,279.67c1.61,3.57,5,4.82,8.24,6.16-2.49,1.57-5.5,1.16-8.14,2.13a5.76,5.76,0,0,0-2.2-2.18l-.6-1.14C101.62,282.32,101.55,280.14,104.64,279.67Z" transform="translate(-41.73 -22.05)"/><path class="cls-6" d="M101.94,284.64l.6,1.14c0,.9,0,1.8,0,2.7-2.07,2.29-4.85,3.88-6.49,6.59-.69-3.48,1.2-6.91,0-10.71C98.19,285.33,100.08,286.45,101.94,284.64Z" transform="translate(-41.73 -22.05)"/><path class="cls-17" d="M242,254.12c-.08-2.75,2.72-2.15,3.71-3.61.29-.44,3.45,3.37,3.32,4.48a3.6,3.6,0,0,1-3.61,3.38C243.64,258.53,242,256.18,242,254.12Z" transform="translate(-41.73 -22.05)"/><path class="cls-18" d="M129.27,285.23c3.72,1.86,7.45,2.48,11.23.14.51-.31,1.19-.77,1.31.39-2.7,2.36-6,2.29-9.25,2.18-1.28-.84-2.94-.92-4.06-2.06Z" transform="translate(-41.73 -22.05)"/><path class="cls-19" d="M224.73,281.42c2.55,3.13,6.25,4.22,9.84,5.5l-.57.55c-4.43.22-7.41-2.19-9.93-5.45Z" transform="translate(-41.73 -22.05)"/><path class="cls-20" d="M212.7,251.42a15.64,15.64,0,0,1,1-2.34c.65-1.06.56.08.78.32q-.58,3.54-1.15,7.09C213,254.82,213.86,253,212.7,251.42Z" transform="translate(-41.73 -22.05)"/><path class="cls-21" d="M95,272.1l1-.53a4.18,4.18,0,0,1-.72,2.29C94.7,273.29,95,272.68,95,272.1Z" transform="translate(-41.73 -22.05)"/><path class="cls-9" d="M254.22,360.39a2.23,2.23,0,0,1,1.49,2.1c-.34,4.42,2.08,8.7.68,13.16a36.71,36.71,0,0,1-10,6.39c-4,1.71-7.37,4.5-11.24,6.41a6.13,6.13,0,0,1-2.81.87,4.63,4.63,0,0,1-1.84-1.93c-.61-1-1.43-1-2.28-.23a66.25,66.25,0,0,0-9.45,9.93C213,401,208,406,201.69,409c-5.91,2.8-11.14,6.76-16.9,9.81a13.47,13.47,0,0,0-2.58,2.39c-.65.63-1.35,1.54-2.28,1.17-1.08-.44-.57-1.65-.42-2.41,1.48-7.26,3-14.52,5.63-21.46.54-1.43.41-3,1.31-4.32,1.61-.83,2.78.24,4,1,1.67,1.09,3.25,2.32,4.91,3.42,3.41,2.27,4.64,2.13,7.53-.76,7.07-7.06,14.07-14.2,21.23-21.17a73.07,73.07,0,0,1,11.61-8.92c4.46-2.88,9.69-4,14.36-6.36A7.86,7.86,0,0,1,254.22,360.39Z" transform="translate(-41.73 -22.05)"/><path class="cls-11" d="M254.22,360.39a7.86,7.86,0,0,0-4.17,1c-4.67,2.37-9.9,3.48-14.36,6.36a73.07,73.07,0,0,0-11.61,8.92c-7.16,7-14.16,14.11-21.23,21.17-2.89,2.89-4.12,3-7.53.76-1.66-1.1-3.24-2.33-4.91-3.42-1.18-.76-2.35-1.83-4-1,.58-2.49.64-5.18,2.75-7.07,6.58-3.62,13.09-7.37,19.76-10.82,11.9-6.17,23.62-12.71,36.16-17.57a28.25,28.25,0,0,1,3.35-1C251.72,356.88,252.82,357.42,254.22,360.39Z" transform="translate(-41.73 -22.05)"/><path class="cls-3" d="M104.72,510.83c1.29-5.47,3.44-10.66,5.32-15.92,4.72-13.29,10-26.38,15.43-39.38,1.57-3.75,3.26-7.45,4.89-11.18.69.4.45,1.11.58,1.7-3.93,14.47-7.26,29.08-10.11,43.8a5.74,5.74,0,0,1-.73,1.41c-3.53,1.16-4.21,4.8-6.14,7.3-3.14,4.08-5.83,8.51-8.71,12.8Z" transform="translate(-41.73 -22.05)"/><path class="cls-3" d="M132.91,467.68c0,2.9,0,5.8,0,8.7a11.33,11.33,0,0,1-.46,3.48c-1,3.53-3.39,6.36-4.94,9.62a1.71,1.71,0,0,1-2.22,1.1,1.68,1.68,0,0,1-.91-2.07c2.14-9.8,2-20,4.94-29.65.13-.43.31-.85.46-1.27.33-.92.52-2.13,1.84-1.93s.86,1.38.87,2.21c0,3.27,0,6.54,0,9.81Z" transform="translate(-41.73 -22.05)"/><path class="cls-22" d="M218.8,397.09a66.25,66.25,0,0,1,9.45-9.93c.85-.73,1.67-.75,2.28.23a4.63,4.63,0,0,0,1.84,1.93c-1,1.55-2.71,2-4.23,2.8C225,393.73,221.91,395.43,218.8,397.09Z" transform="translate(-41.73 -22.05)"/><path class="cls-23" d="M130.94,446.05c-.13-.59.11-1.3-.58-1.7.6-1.33.48-3.09,2.28-3.67A22.53,22.53,0,0,1,130.94,446.05Z" transform="translate(-41.73 -22.05)"/><path class="cls-24" d="M157.07,446c1.07,2.29-1.12,2.43-2.19,3.32C154.94,447.72,156.2,447,157.07,446Z" transform="translate(-41.73 -22.05)"/><path class="cls-4" d="M263.8,518.75c-5.46,11.57-10.26,23.18-14.49,35-1,2.9-2.35,5.7-3.22,8.64a2.15,2.15,0,0,1-2.49,1.83,49.83,49.83,0,0,1-9.12-1.09c-6.81-1.4-13.59-2.95-20.4-4.29-1.92-.38-1.66-1-.84-2.27s2.24-1.73,3.62-2.14a69.11,69.11,0,0,0,15.56-6.28c6-3.54,10.52-8.83,15.17-13.89,4.34-4.72,8.13-9.93,12.63-14.52C261.16,518.8,262.1,518.05,263.8,518.75Z" transform="translate(-41.73 -22.05)"/><path class="cls-25" d="M157.58,496l.12-1c.8-.82.43-1.83.46-2.77a.52.52,0,0,1,.05-.5c.85-.85.46-1.9.44-2.89a193.48,193.48,0,0,1,4.49-26.5c.62.42.36,1.13.55,1.68a225.76,225.76,0,0,1-4.76,29c-.45,1.88-.58,3.83-.85,5.75C157.27,498,157.84,496.91,157.58,496Z" transform="translate(-41.73 -22.05)"/><path class="cls-26" d="M157.58,496c.26.92-.31,2,.5,2.81l-1.08,6c-.62-.45-.38-1.18-.57-1.76A26.24,26.24,0,0,1,157.58,496Z" transform="translate(-41.73 -22.05)"/><path class="cls-27" d="M163.69,464c-.19-.55.07-1.26-.55-1.68.18-1.08.36-2.16.53-3.24l.25-.06h.25C164.07,460.73,164.56,462.45,163.69,464Z" transform="translate(-41.73 -22.05)"/><path class="cls-28" d="M156.43,503c.19.58-.05,1.31.57,1.76-.19,1.08-.39,2.16-.58,3.24-.18-.39-.35-.79-.53-1.18C156,505.56,155.71,504.23,156.43,503Z" transform="translate(-41.73 -22.05)"/><path class="cls-29" d="M155.89,506.85c.18.39.35.79.53,1.18-.15.93-.29,1.85-.44,2.78l-.56,0C155.49,509.5,155.15,508.11,155.89,506.85Z" transform="translate(-41.73 -22.05)"/><path class="cls-30" d="M155.42,510.84l.56,0c-.24.94-.47,1.88-.8,3.17C154.86,512.64,154.62,511.69,155.42,510.84Z" transform="translate(-41.73 -22.05)"/><path class="cls-31" d="M164.17,459.07h-.25l-.25.06.66-2.5C164.92,457.68,164.89,458.41,164.17,459.07Z" transform="translate(-41.73 -22.05)"/><path class="cls-26" d="M158.65,488.86c0,1,.41,2-.44,2.89A4.27,4.27,0,0,1,158.65,488.86Z" transform="translate(-41.73 -22.05)"/><path class="cls-26" d="M158.16,492.25c0,.94.34,1.95-.46,2.77A3.94,3.94,0,0,1,158.16,492.25Z" transform="translate(-41.73 -22.05)"/><path class="cls-32" d="M104.72,510.83l.53.53c-.37.65-.43,1.53-1.47,1.89A3.93,3.93,0,0,1,104.72,510.83Z" transform="translate(-41.73 -22.05)"/><path class="cls-33" d="M169,337.36c-1.93.61-2.89-.53-3.57-2-1.2-2.53-.79-6.62.74-8a3.28,3.28,0,0,1,4-.39,10.79,10.79,0,0,1,4.09,4.28c.84,1.49,1.43,3.12,2.12,4.69.6,1.39.41,2.67-1.17,3-1.87.43-1-1.21-1.17-2a15.83,15.83,0,0,0-2.34-4.86c-.89-1.39-2.12-2.65-3.75-1.39s-1.43,3-.52,4.69C167.81,336.19,168.86,336.31,169,337.36Z" transform="translate(-41.73 -22.05)"/><path class="cls-34" d="M102.59,288.48c0-.9,0-1.8,0-2.7a5.76,5.76,0,0,1,2.2,2.18C104.17,288.73,103.35,288.46,102.59,288.48Z" transform="translate(-41.73 -22.05)"/></svg>