<svg id="图层_1" data-name="图层 1" xmlns="http://www.w3.org/2000/svg" xmlns:xlink="http://www.w3.org/1999/xlink" viewBox="0 0 354.33 241.89"><defs><style>.cls-1{fill:url(#未命名的渐变_15);}</style><linearGradient id="未命名的渐变_15" y1="120.95" x2="354.33" y2="120.95" gradientUnits="userSpaceOnUse"><stop offset="0" stop-color="#0098d4"/><stop offset="0.27" stop-color="#05aace"/><stop offset="0.59" stop-color="#66cce0"/></linearGradient></defs><title>画板 1</title><g id="レイヤー_2" data-name="レイヤー 2"><g id="Logo"><path class="cls-1" d="M241.11,68.54A128.45,128.45,0,0,0,226.53,83c-2.18,2.51-4.3,5.25-6.27,7.92s-3.91,5.48-5.85,8.23c-9.68,13.69-18,19.32-22.13,21.88a45.44,45.44,0,0,1-24.34,6.73H128.55s38.51-25.42,51.34-37c17-15.4,36-35.82,30.9-60.8C207.56,14.09,194.7,1.62,178.4.23c-23.4-2-42.79,13.29-53.4,33.62a15.65,15.65,0,0,0-.67,1.44c-.18.43-.15.84.1,1,.44.26.78.08,2-1.62,11.64-16.55,33.11-24.6,50.18-15.61,10.13,5.34,14.63,15.75,15.08,26.44.72,16.37-9.09,31.25-32,50.69-16,13.56-33.16,26-45.7,35l-7.46,5.42c-1.25.9-2.82,1.2-3.69.19s-.59-2.29.21-3.54c4.81-7.48,10-17.55,11.09-21.2.19-.63,0-.85-.18-1a.65.65,0,0,0-.83.22,14.75,14.75,0,0,0-.93,1.16c-5.6,7.43-15.49,15.28-32.88,15.28H24.18S64.42,100,75.53,90.64,97,70.6,103.1,57.22c5.63-12.42,5.75-28.22-1.29-40.08C95.14,5.91,83.54,0,69.26,0,47.54,0,30.78,14.2,20.64,33.85A15,15,0,0,0,20,35.28c-.16.43-.15.74.15.92s.54.19,1-.38A13.8,13.8,0,0,0,22,34.66C26.69,28.15,36.71,15,56.6,15.13c17.29.09,30,12.21,30.74,29.75.71,16.36-9.13,31.86-32.06,51.3-16,13.55-33.15,25.94-45.68,35L.48,137.79a1.27,1.27,0,0,0-.37,1.5,1.26,1.26,0,0,0,1.27.71c.67,0,7.89-.34,7.89-.34,3-.12,9-.35,14.06-.43,0,0,163,0,165.15.05,2.83,0,5,.31,6.72,2.11s2,4.16,1.57,7.74a126.19,126.19,0,0,0,24.3,92.59l.14.17c.46-1.11,1.12-2.65,1.59-3.76a122.77,122.77,0,0,1-20.64-99.28c2.54-10.46,6.77-18.18,12.09-24.29a64,64,0,0,1,7.62-7.1,40.1,40.1,0,0,1,24.6-7.88h49.87c-7.91,11.1-32.76,42-49.12,63.82-10.1,13.47-24.72,33.3-26.62,36.81a10.48,10.48,0,0,0-.06,10.09,7.83,7.83,0,0,0,8.51,3.82c4.31-.74,6.69-3.55,9-8.29,13.13-27.48,31.56-56.7,48-80.77,4.52-6.64,9.12-13.34,13.81-19.86,2-2.78,8.85-12.06,10.39-14.21.47-.65,1.21-1.59,1.5-2.09a1.3,1.3,0,0,0,.08-1.25,1.13,1.13,0,0,0-1-.55l-69.7.07c-2.46,0-5.22-.51-6.29-2.92-1.24-2.84.6-5.56,2.32-7.28,1.13-1.13,2-2,3.13-3.06l2-1.71,1.16-1a122.91,122.91,0,0,1,108-25.2c1-1,1.94-1.92,2.9-2.89A126.41,126.41,0,0,0,241.11,68.54Z"/></g></g></svg>